<svg id="Grupo_477" data-name="Grupo 477" xmlns="http://www.w3.org/2000/svg" xmlns:xlink="http://www.w3.org/1999/xlink" width="27.49" height="30.042" viewBox="0 0 27.49 30.042">
  <defs>
    <clipPath id="clip-path">
      <rect id="Retângulo_504" data-name="Retângulo 504" width="27.49" height="30.042" fill="none"/>
    </clipPath>
  </defs>
  <g id="Grupo_291" data-name="Grupo 291" clip-path="url(#clip-path)">
    <path id="Caminho_214" data-name="Caminho 214" d="M101.455,0a10.387,10.387,0,0,1,1.331.424,4.432,4.432,0,0,1,2.362,5.153,6.974,6.974,0,0,1-.37.813l-.075-.014c-.021-.068-.045-.135-.064-.2a3.55,3.55,0,0,0-3.582-2.594.461.461,0,0,0-.291.145A6.879,6.879,0,0,1,95.3,6.161c-.773,0-1.546-.01-2.318.005a.356.356,0,0,1-.392-.258,4.028,4.028,0,0,1,.14-3.328,4.276,4.276,0,0,1,3.3-2.532A.809.809,0,0,0,96.17,0Z" transform="translate(-85.061)"/>
    <path id="Caminho_215" data-name="Caminho 215" d="M22.145,261.227v-4H20.4v3.993H7.12v-3.994H5.367v4H0c.122-.536.241-1.064.363-1.592.389-1.695.762-3.393,1.173-5.083a3.485,3.485,0,0,1,2.694-2.69c1.3-.339,2.617-.646,3.923-.982a.409.409,0,0,1,.474.154,6.867,6.867,0,0,0,10.234.014.451.451,0,0,1,.526-.161c1.286.333,2.579.64,3.865.97a3.516,3.516,0,0,1,2.735,2.758c.509,2.158,1,4.321,1.492,6.483a1.017,1.017,0,0,1,.011.133Z" transform="translate(0 -231.185)"/>
    <path id="Caminho_216" data-name="Caminho 216" d="M122.271,71.492c.576,0,1.135.038,1.686-.007a8.185,8.185,0,0,0,5.08-2.293.43.43,0,0,1,.565-.1,1.634,1.634,0,0,1,1,1.5c.016,1.506.032,3.013-.005,4.518a4.141,4.141,0,0,1-8.21.855,3.118,3.118,0,0,1-.111-.664c-.011-1.241-.005-2.482-.005-3.813" transform="translate(-112.681 -63.616)"/>
    <path id="Caminho_217" data-name="Caminho 217" d="M131.931,212.361a5.746,5.746,0,0,0,5.965,0,1.943,1.943,0,0,1,.069.213c.129.641.248,1.284.388,1.923a.354.354,0,0,1-.147.4,5.139,5.139,0,0,1-6.581-.006.442.442,0,0,1-.153-.332c.119-.692.264-1.38.4-2.069a.8.8,0,0,1,.054-.128" transform="translate(-121.161 -195.708)"/>
    <path id="Caminho_218" data-name="Caminho 218" d="M9.322,158.18,7.6,156.444l-1.06,1.1-1.214-1.219,2.317-2.317,1.75,1.769,1.437-1.246,1.156,1.324L9.322,158.18" transform="translate(-4.907 -141.933)"/>
    <path id="Caminho_219" data-name="Caminho 219" d="M261.669,153.866l1.387,1.2,1.743-1.783,2.4,2.426-1.163,1.161-1.078-1.119-1.764,1.777-2.685-2.34,1.156-1.325" transform="translate(-240.084 -141.266)"/>
    <path id="Caminho_220" data-name="Caminho 220" d="M277.452,61.307l.578,1.659L276.5,63.5l.8,2.3-3.228,1.375-.69-1.617,1.712-.734-.834-2.417,3.19-1.109" transform="translate(-251.945 -56.499)"/>
    <path id="Caminho_221" data-name="Caminho 221" d="M18.121,62.927l.578-1.659,3.19,1.109-.835,2.415,1.713.736-.689,1.616-3.228-1.373.794-2.3-1.524-.541" transform="translate(-16.7 -56.464)"/>
  </g>
</svg>
